# xmcd
#
# Track frame offsets:
#	150
#	12580
#	24706
#	35071
#	48277
#	61965
#	73684
#	86896
#	99589
#	108018
#
# Disc length: 1507 seconds
#
# Revision: 0
# Processed by: cddbd v1.5.2PL0 Copyright (c) Steve Scherf et al.
# Submitted via: audiograbber 1.83.01
#
DISCID=8405e10a
DTITLE=Trevor Warner  - Instrumental In Bluegrass
DYEAR=2006
DGENRE=Australian Country
TTITLE0=Fireball Mail
TTITLE1=Chime Time
TTITLE2=Blackberry Blossom
TTITLE3=Drunkard's Hiccups
TTITLE4=Race To The Rock
TTITLE5=Out Of Town
TTITLE6=Camooweal
TTITLE7=Jesse James
TTITLE8=You  Are My Sunshine
TTITLE9=Rabbit On The Road
EXTD=
EXTT0=
EXTT1=
EXTT2=
EXTT3=
EXTT4=
EXTT5=
EXTT6=
EXTT7=
EXTT8=
EXTT9=
PLAYORDER=
